<svg class="js-marquee-image" width="26" height="26" fill="none" xmlns="http://www.w3.org/2000/svg" style="transform: translate3d(0px, 0px, 0px) rotate(319.269deg);">
                            <path d="M12.64.66c.07-.55.87-.55.94 0l.6 4.73c.07.45.66.57.89.18l2.37-4.14c.28-.48 1.01-.18.87.36l-1.25 4.6c-.12.44.39.78.75.5l3.77-2.92c.44-.34 1 .23.67.67L19.33 8.4c-.28.36.06.87.5.75l4.6-1.25c.54-.14.84.6.36.87l-4.14 2.37c-.39.23-.27.82.18.88l4.73.61c.55.07.55.87 0 .94l-4.73.6a.47.47 0 0 0-.18.89l4.14 2.37c.48.28.18 1.01-.36.87l-4.6-1.25a.47.47 0 0 0-.5.75l2.92 3.77c.34.44-.23 1-.67.67l-3.77-2.92a.47.47 0 0 0-.75.5l1.25 4.6c.14.54-.6.84-.87.36l-2.37-4.14a.47.47 0 0 0-.88.18l-.61 4.73c-.07.55-.87.55-.94 0l-.6-4.73a.47.47 0 0 0-.89-.18L8.78 24.8c-.28.48-1.01.18-.87-.36l1.25-4.6a.47.47 0 0 0-.75-.5l-3.77 2.92c-.44.34-1-.23-.67-.67l2.92-3.77a.47.47 0 0 0-.5-.75L1.8 18.3c-.54.14-.84-.6-.36-.87l4.14-2.37a.47.47 0 0 0-.18-.88l-4.73-.61c-.55-.07-.55-.87 0-.94l4.73-.6a.47.47 0 0 0 .18-.89L1.43 8.78c-.48-.28-.18-1.01.36-.87l4.6 1.25c.44.12.78-.39.5-.75L3.97 4.64c-.34-.44.23-1 .67-.67L8.4 6.9c.36.28.87-.06.75-.5L7.91 1.8c-.14-.54.6-.84.87-.36l2.37 4.14c.23.39.82.27.88-.18l.61-4.73Z" fill="#67645E"></path>
                        </svg>