
<svg xmlns="http://www.w3.org/2000/svg" xmlns:xlink="http://www.w3.org/1999/xlink" version="1.1" id="Layer_1" x="0px" y="0px" viewBox="0 0 17.6 18.9" style="enable-background:new 0 0 17.6 18.9;" xml:space="preserve">
  <style type="text/css">
    .st0{fill-rule:evenodd;clip-rule:evenodd;}
  </style>
  <path class="st0" d="M2.2,7.1c0-2.7,2.2-4.9,4.9-4.9c2.7,0,4.9,2.2,4.9,4.9C12,9.8,9.8,12,7.1,12C4.4,12,2.2,9.8,2.2,7.1z M7.1,0.2  c-3.8,0-6.9,3.1-6.9,6.9c0,3.8,3.1,6.9,6.9,6.9c1.2,0,2.3-0.3,3.3-0.9l5.3,5.3c0.4,0.4,1,0.4,1.4,0c0.4-0.4,0.4-1,0-1.4L12,11.9  c1.2-1.2,2-2.9,2-4.8C14,3.3,10.9,0.2,7.1,0.2z"></path>
</svg>